<svg xmlns="http://www.w3.org/2000/svg" x="0px" y="0px" width="100" height="100" viewBox="0 0 40 40">
<path fill="#8bb7f0" d="M30.917,9.468l-1.509,6.489l-2.762-5.307C28.21,10.383,29.354,10.217,30.917,9.468z"></path><path fill="#8bb7f0" d="M8.451,9.758l2.406,5.243l0.999-4C9.69,10.674,9.754,9.999,8.451,9.758z"></path><line x1="10.893" x2="8.356" y1="15.363" y2="9.773" fill="none" stroke="#4e7ab5" stroke-miterlimit="10"></line><polygon fill="#8bb7f0" points="17.529,19.501 19.925,11.515 23.119,19.501"></polygon><path fill="#000000" d="M19.992,13.031l2.388,5.97h-4.179L19.992,13.031 M19.857,10.001l-3,10h7L19.857,10.001 L19.857,10.001z"></path><line x1="29.25" x2="31.351" y1="15.958" y2="9.773" fill="none" stroke="#4e7ab5" stroke-miterlimit="10"></line><path fill="#4e7ab5" d="M10.603,3.141c0.155,0.026,0.309,0.053,0.462,0.079c2.933,0.502,5.466,0.935,8.724,0.935 c2.76,0,5.744-0.316,9.326-0.992c0.342,1.38,1.004,4.042,1.532,6.132c-1.416,0.372-2.989,0.725-3.008,0.729l-1.146,0.257 l0.436,1.09l5.88,14.706l-0.031,0.123H7.984l-0.069-0.203l4.89-14.681l0.36-1.081l-1.118-0.217 c-0.021-0.004-1.695-0.331-2.992-0.691l1.541-6.165L10.603,3.141 M29.857,2.001c-4.227,0.845-7.381,1.155-10.068,1.155 c-3.67,0-6.468-0.577-9.932-1.155l-0.23,0.92l-1.77,7.08c1.32,0.48,4,1,4,1l-4.99,14.98l-0.01,0.01l0.41,1.21h26.29l0.3-1.19 l-0.01-0.03l-5.99-14.98c0,0,2.41-0.54,4-1C31.113,7.077,29.857,2.001,29.857,2.001L29.857,2.001z"></path><g><polygon fill="#8bb7f0" points="19.166,37.501 17.857,34.882 16.549,37.501 11.218,37.501 7.742,27.044 7.552,26.483 15.218,26.502 16.857,21.582 18.497,26.501 33.222,26.482 30.467,37.501"></polygon><path fill="#4e7ab5" d="M16.857,23.163l1.051,3.154l0.228,0.685l0.722-0.001l13.722-0.018l-2.505,10.018H19.475 l-0.724-1.447l-0.894-1.789l-0.894,1.789l-0.724,1.447h-4.661l-3.33-10.017l6.606,0.017l0.723,0.002l0.229-0.686L16.857,23.163 M16.857,20.001l-2,6l-7.99-0.02h-0.01v0.01l0.41,1.21l3.59,10.8h6l1-2l1,2h12l2.7-10.8l0.3-1.19l-0.01-0.03l-14.99,0.02 L16.857,20.001L16.857,20.001z"></path></g>
</svg>